<?xml version="1.0" encoding="utf-8"?>
<!-- Generator: Adobe Illustrator 18.1.0, SVG Export Plug-In . SVG Version: 6.00 Build 0)  -->
<svg version="1.1" id="Layer_1" xmlns="http://www.w3.org/2000/svg" xmlns:xlink="http://www.w3.org/1999/xlink" x="0px" y="0px"
	 viewBox="0 0 153.5 35.8" enable-background="new 0 0 153.5 35.8" xml:space="preserve">
<g>
	<path fill="#0786B2" d="M35.5,15.4l1.4,11l3.2-11C38.8,15.2,37.2,15.2,35.5,15.4z"/>
	<path fill="#0786B2" d="M35.2,32.4l-2-16.5c-4.3,1.5-8.4,5.2-8.8,8.6c-0.4,2.9,1.9,4.5,5,5.2c0.4,0.1,0.5,0.3,0.4,0.5
		c0,0.3-0.6,0.7-1.1,0.7c-5.5-0.7-8.9-4.2-8.1-8.9c0.7-4.5,6.2-9.8,11.9-12l-1-7.9h-0.3c-8.7,6.2-18.1,13.6-19.5,22.1
		c-0.7,4.4,1.4,7.6,5,9.5h18L35.2,32.4z"/>
	<path fill="#0786B2" d="M6.9,21.9c0-0.3,0-0.7,0.1-1L3.3,33.7h8.9C8.7,31,6.7,26.9,6.9,21.9z"/>
	<path fill="#0786B2" d="M33.8,2.2l1,7.1c1-0.2,2-0.4,2.9-0.6c1.6-0.2,3-0.3,4.3-0.1L44,2.2H33.8z"/>
	<path fill="#0786B2" d="M19.9,2.2h-7.4L8.4,16C10.7,11.1,15,6.5,19.9,2.2z"/>
</g>
<path fill="#E9E9EA" d="M54.6,11.7c-1.3,0-1.4,0-1.1-0.9l1.7-5.6c0.2-0.7,0.3-0.8,1.2-0.8c2,0,2.9,1.3,2.9,2.9
	C59.3,9.7,57,11.7,54.6,11.7z M52.3,19.3c-1.3-0.2-1.3-0.7-0.6-2.9l1-3.1c0.2-0.7,0.3-0.7,1.2-0.7c0.8,0,1,0.2,1.3,1.3
	c0.1,0.7,0.7,3.3,1,4.3c0.3,0.9,0.7,1.4,1.1,1.6c0.4,0.2,1,0.3,1.9,0.3c1.1,0,1.5-0.1,1.8-0.1c0.2-0.2,0.2-0.5,0.1-0.7
	c-1.1-0.1-1.7-0.6-2.1-1.6c-0.4-1-0.8-3-1.3-5.2c-0.1-0.5-0.1-0.7,0.3-0.8c1.8-0.4,4.2-1.8,4.2-4.3c0-2.8-2.1-4.2-6.5-4.2
	c-1.7,0-3.1,0-4.7,0.2c-0.3,0.1-0.4,0.5-0.2,0.7l0.9,0.1c0.9,0.2,0.9,0.5,0.2,2.6l-3,9.5c-0.7,2.5-1,2.8-2.2,2.9l-0.7,0.1
	c-0.3,0.1-0.3,0.6-0.1,0.7c1,0,2.2-0.1,3.3-0.1c1.1,0,2.1,0,3.4,0.1c0.2-0.1,0.3-0.5,0.2-0.7L52.3,19.3z"/>
<path fill="#E9E9EA" d="M70.9,10.7c0.3,0,0.5,0.3,0.5,0.6c0,0.4-0.3,1.3-0.9,1.9c-0.8,0.8-1.6,1.3-2.9,1.7c0.3-0.9,0.9-2.2,1.8-3.2
	C70,11,70.5,10.7,70.9,10.7z M66.8,20.4c1.7,0,3.4-0.8,4.8-2.7c0.1-0.3-0.2-0.5-0.4-0.5c-1.2,1.1-2.1,1.6-3,1.6
	c-0.7,0-1.1-0.5-1.1-1.4c0-0.7,0.1-1.3,0.2-1.6c2.8-0.8,6.2-2,6.2-4.3c0-0.8-0.8-1.7-2-1.7c-1,0-2.1,0.3-3.5,1.4
	c-2.4,1.8-3.6,4.6-3.6,6.5C64.4,19.1,65.1,20.4,66.8,20.4z"/>
<path fill="#E9E9EA" d="M82.4,11.2c0.5,0,0.9,0.3,1.1,0.9c-0.4,1.2-1.5,3.4-2.8,4.8c-1.1,1.1-2.2,2-2.6,2c-0.2,0-0.3-0.2-0.3-0.5
	c0.1-1.7,1.4-4.5,2.8-6.1C81.5,11.4,81.9,11.2,82.4,11.2z M84.2,10.8c-0.2-0.2-0.4-0.4-0.5-0.5c-0.2-0.1-0.4-0.2-0.6-0.2
	c-0.6,0-1.2,0.2-2,0.6c-0.9,0.5-2,1.2-3.2,2.5c-1.9,2.2-3,4.8-3,5.7c0,0.8,0.6,1.5,1.4,1.5c1.5,0,4-1.8,5.8-4.2h0.1l-0.9,2.4
	c-0.2,0.5-0.3,0.8-0.3,1c0,0.3,0.2,0.8,0.8,0.8c1.6,0,3.6-1.4,4.7-2.8c0-0.3-0.2-0.5-0.4-0.5c-1.1,1.1-2.1,1.6-2.5,1.6
	c-0.2,0-0.3-0.1-0.1-0.5c0.9-2.6,2.6-6.8,3.3-8.4c-0.2-0.5-0.9-0.6-1.4-0.6c-0.2,0-0.4,0.1-0.5,0.1L84.2,10.8z"/>
<path fill="#E9E9EA" d="M92,18c-0.2,0.7-0.3,1,0.1,1c0.6,0,1.9-1.4,2.8-2.4c0.3,0,0.5,0.2,0.5,0.5c-0.7,1.4-2.2,3.4-4.8,3.4
	c-1,0-1.3-0.5-1.3-0.9c0-0.4,0.1-0.9,0.5-1.9l4.2-12.2c0.5-1.3,0.4-1.6-0.1-1.8l-0.6-0.3C93,3.2,93,3,93.2,2.8
	c0.7-0.3,2.8-0.7,4-0.8c0.1,0,0.2,0.2,0.2,0.2C97,3.2,96.7,4,96.1,6L92,18z"/>
<path fill="#E9E9EA" d="M103.8,11.4l-2.3,6.5c-0.2,0.4-0.1,0.6,0.1,0.6c0.4,0,1.9-1.1,2.8-2.1c0.3,0.1,0.5,0.2,0.4,0.6
	c-1.1,1.7-3.6,3.5-5.2,3.5c-0.5,0-0.9-0.5-0.9-0.9c0-0.4,0.1-0.7,0.3-1.4l2.3-6.8h-1.9c-0.2-0.2,0-0.7,0.3-0.8l2.1-0.4l1.6-2.5
	c0.2-0.1,0.4-0.1,0.6-0.1c0.4,0,0.7,0.1,0.8,0.3l-0.7,2.4h2.5c0.3,0.3,0.1,1-0.2,1.1H103.8z"/>
<path fill="#E9E9EA" d="M111.7,18.2c-0.1,0.3-0.1,0.5,0.1,0.5c0.4,0,1.8-1,2.5-1.7c0.3,0,0.5,0.3,0.4,0.5c-0.7,1.1-3.1,3-5.1,3
	c-0.4,0-0.8-0.6-0.8-0.8c0-0.3,0-0.6,0.2-1l2.8-6.6c0.1-0.3,0.1-0.4-0.1-0.4c-0.3,0-1.4,0.7-2.2,1.4c-0.3,0-0.4-0.3-0.4-0.5
	c1.4-1.6,3.5-2.7,4.7-2.7c0.4,0,0.8,0.4,0.8,0.7c0,0.2,0,0.6-0.3,1.1L111.7,18.2z M113.1,5.5c0-0.9,0.6-1.8,1.7-1.8
	c0.8,0,1.2,0.4,1.2,1.2c0,1-0.7,1.8-1.7,1.8C113.5,6.8,113.1,6.2,113.1,5.5z"/>
<path fill="#E9E9EA" d="M123.9,11.1l-1.5,3.7h0c1.6-2.5,3.8-5.1,5.8-5.1c1.5,0,1.5,1.4,1.3,2.2c-0.2,0.5-0.7,2-1.1,3h0.1
	c2-3.3,4.1-5.2,5.9-5.2c1.1,0,1.6,0.7,1.6,1.5c0,0.5-0.2,1.3-0.5,1.9c-0.5,1.2-1.7,4-2.1,5c-0.1,0.3-0.1,0.5,0.1,0.5
	c0.5,0,1.6-0.9,2.3-1.7c0.3-0.1,0.5,0.1,0.5,0.5c-0.8,1.4-2.9,3-4.9,3c-0.5,0-0.9-0.5-0.9-0.8c0-0.3,0.2-0.7,0.5-1.5
	c0.7-1.5,1.5-3.6,2.1-5.1c0.2-0.5,0.4-1.1,0.4-1.5c0-0.3-0.1-0.5-0.4-0.5c-0.5,0-1.4,0.7-2.6,2.3c-1.3,1.7-2.5,4.1-3.8,6.6
	c-0.2,0.4-0.4,0.5-0.8,0.5c-0.7,0-1.5-0.2-1.3-0.8c0-0.2,2-5.3,2.6-6.6c0.2-0.4,0.5-1.1,0.5-1.4c0-0.3-0.1-0.5-0.4-0.5
	c-0.6,0-1.5,0.7-2.8,2.3c-1.3,1.6-2.5,4.1-3.6,6.6c-0.2,0.4-0.4,0.5-0.8,0.5c-0.8,0-1.4-0.2-1.3-0.8c0.1-0.3,2.4-6.7,2.7-7.4
	c0.2-0.7,0.2-0.9-0.2-0.9c-0.8,0-1.6,0.8-2.1,1.4c-0.3,0-0.5-0.2-0.5-0.5c0.7-1.4,2.2-2.6,4.4-2.6C124,9.8,124.2,10.5,123.9,11.1z"
	/>
<path fill="#E9E9EA" d="M145,10.7c0.3,0,0.5,0.3,0.5,0.6c0,0.4-0.3,1.3-0.9,1.9c-0.8,0.8-1.6,1.3-2.9,1.7c0.3-0.9,0.9-2.2,1.8-3.2
	C144.1,11,144.7,10.7,145,10.7z M141,20.4c1.7,0,3.4-0.8,4.8-2.7c0.1-0.3-0.2-0.5-0.4-0.5c-1.2,1.1-2.1,1.6-3,1.6
	c-0.7,0-1.1-0.5-1.1-1.4c0-0.7,0.1-1.3,0.2-1.6c2.8-0.8,6.2-2,6.2-4.3c0-0.8-0.8-1.7-2-1.7c-1,0-2.1,0.3-3.5,1.4
	c-2.4,1.8-3.6,4.6-3.6,6.5C138.6,19.1,139.3,20.4,141,20.4z"/>
<g>
	<path fill="#E9E9EA" d="M42.7,34c0.3,0,0.6-0.1,0.8-0.3c0.2-0.3,0.6-1.1,1.3-2.9l1.1-3c0.4-0.9,0.4-1.3,0.3-1.5
		c-0.1-0.1-0.2-0.2-0.4-0.2L45.3,26c-0.1-0.1-0.1-0.3,0.1-0.4c0.7,0,1.2,0,1.8,0c0.4,0,0.7,0,1.2,0c-0.2,0.6-0.1,1.7,0,2.6l0.2,1.4
		c0.1,0.9,0.2,1.7,0.3,2.1c0.3-0.4,0.8-1,1.3-1.7l1.8-2.5c0.9-1.2,1.2-1.7,1.2-2c0.2,0,0.6,0,1,0c0.6,0,1,0,1.7,0
		c0.1,0.1,0.1,0.3,0,0.4L55.4,26c-0.4,0.1-0.6,0.1-0.7,0.3c-0.2,0.2-0.3,0.6-0.6,1.5l-1.2,4.4c-0.2,0.9-0.3,1.3-0.3,1.5
		c0.1,0.1,0.2,0.2,0.5,0.3l0.4,0.1c0.1,0.1,0.1,0.3,0,0.4c-0.7,0-1.3,0-2,0c-0.6,0-1.1,0-1.7,0c-0.1-0.1-0.1-0.3,0-0.4l0.4-0.1
		c0.2,0,0.5-0.1,0.6-0.2c0.2-0.2,0.4-0.7,0.6-1.5l1.1-3.7c0.2-0.7,0.3-1.2,0.5-1.6l0,0c-0.2,0.3-0.6,0.7-1.1,1.5l-2,2.7
		c-0.7,1-1.4,1.9-2,3c-0.1,0.1-0.3,0.1-0.4-0.1c0-0.5,0-1.2-0.2-2.7c0-0.4-0.2-1.8-0.2-2.2c-0.1-0.9-0.2-1.7-0.2-2.2h0
		c-0.2,0.5-0.5,1.2-0.7,1.9l-0.8,2.3c-0.6,1.7-0.8,2.1-0.8,2.4c0,0.2,0.1,0.3,0.4,0.3l0.6,0.1c0.1,0.1,0.1,0.3-0.1,0.4
		c-0.5,0-1.1,0-1.6,0c-0.6,0-1,0-1.5,0c-0.1-0.1-0.1-0.3,0-0.4L42.7,34z"/>
	<path fill="#E9E9EA" d="M57.4,30.3c0.1-0.2,0.1-0.3,0-0.3c-0.3,0-0.9,0.5-1.2,0.9c-0.1,0-0.2-0.1-0.2-0.3c0.4-0.6,1.6-1.6,2.5-1.6
		c0.3,0,0.5,0.2,0.5,0.5c0,0.1,0,0.2-0.1,0.4l-1.4,3.4c-0.1,0.2,0,0.4,0.1,0.4c0.2,0,0.5-0.3,1-0.7c1.1-1.1,2-2.8,2.5-3.9
		c0.1,0,0.2-0.1,0.4-0.1c0.3,0,0.6,0.1,0.7,0.3c-0.3,0.9-1,2.6-1.6,4.1c-0.1,0.2-0.1,0.4,0.1,0.4c0.2,0,0.9-0.6,1.3-1
		c0.1,0,0.2,0.1,0.2,0.2c-0.4,0.7-1.6,1.7-2.6,1.7c-0.3,0-0.5-0.3-0.4-0.6l0.8-2.1h0c-0.8,1.1-2.4,2.7-3.3,2.7
		c-0.4,0-0.6-0.3-0.6-0.6c0-0.2,0.1-0.4,0.2-0.7L57.4,30.3z"/>
	<path fill="#E9E9EA" d="M63.5,33.7c0-0.3,0.2-0.6,0.5-0.6c0.1,0,0.2,0.1,0.3,0.2c0.3,0.4,0.6,0.6,1,0.6c0.3,0,0.5-0.2,0.5-0.5
		c0-0.4-0.4-0.9-0.7-1.2c-0.4-0.5-0.6-0.9-0.6-1.3c0-0.6,0.3-1,0.8-1.4c0.4-0.3,0.9-0.5,1.2-0.5c0.6,0,1.1,0.5,1.1,0.9
		c0,0.4-0.3,0.6-0.4,0.6c-0.1,0-0.2-0.1-0.3-0.2c-0.4-0.4-0.6-0.6-0.9-0.6c-0.3,0-0.5,0.2-0.5,0.4c0,0.4,0.4,0.8,0.7,1.1
		c0.4,0.5,0.6,0.9,0.6,1.4c0,0.5-0.2,1-0.7,1.4c-0.4,0.3-0.9,0.5-1.5,0.5C64,34.6,63.5,34.2,63.5,33.7z"/>
	<path fill="#E9E9EA" d="M70.9,33.4c-0.1,0.1-0.1,0.3,0,0.3c0.2,0,0.9-0.5,1.3-0.9c0.1,0,0.3,0.1,0.2,0.3c-0.4,0.6-1.6,1.6-2.7,1.6
		c-0.2,0-0.4-0.3-0.4-0.4c0-0.1,0-0.3,0.1-0.5l1.5-3.5C71,30.1,71,30,71,30c-0.2,0-0.7,0.3-1.1,0.7c-0.1,0-0.2-0.2-0.2-0.3
		c0.7-0.8,1.8-1.4,2.4-1.4c0.2,0,0.4,0.2,0.4,0.4c0,0.1,0,0.3-0.1,0.6L70.9,33.4z M71.6,26.8c0-0.5,0.3-1,0.9-1
		c0.4,0,0.6,0.2,0.6,0.7c0,0.5-0.4,1-0.9,1C71.8,27.4,71.6,27.1,71.6,26.8z"/>
	<path fill="#E9E9EA" d="M75.6,34.6c1,0,2-0.7,2.4-1.4c0-0.2-0.1-0.3-0.2-0.3c-0.5,0.6-1,0.8-1.4,0.8c-0.3,0-0.5-0.2-0.5-0.8
		c0-1,0.4-2,0.8-2.6c0.4-0.6,0.7-0.9,1-0.9c0.3,0,0.3,0.4,0.3,0.7c0,0.2,0.2,0.4,0.4,0.4c0.3,0,0.8-0.2,0.8-0.7
		c0-0.5-0.5-0.9-1.1-0.9c-0.7,0-1.4,0.3-2.1,1c-1,0.9-1.5,2.3-1.5,3.1C74.4,34.1,74.9,34.6,75.6,34.6z"/>
	<path fill="#E9E9EA" d="M85.4,33.6c-0.1-0.7,0-1.3,0.1-1.8c0.1-0.1,0.3-0.1,0.4,0c0.1,0.5,0.2,1,0.5,1.4c0.3,0.5,0.9,0.9,1.6,0.9
		c0.8,0,1.8-0.6,1.8-1.7c0-0.9-0.7-1.5-1.4-2.1c-0.6-0.4-1.3-1.2-1.3-2.2c0-1.6,1.3-2.7,3-2.7c0.9,0,1.8,0.3,2.2,0.7
		c-0.2,0.4-0.4,1-0.5,1.7c-0.1,0.1-0.3,0.1-0.4-0.1c0.1-0.9-0.2-1.7-1.5-1.7c-1,0-1.6,0.7-1.6,1.5c0,0.9,0.9,1.5,1.3,1.8
		c0.9,0.6,1.5,1.4,1.5,2.6c0,1.6-1.2,2.8-3.3,2.8C86.7,34.6,85.7,34.2,85.4,33.6z"/>
	<path fill="#E9E9EA" d="M94.9,34.1c-0.3,0-0.5-0.3-0.5-0.7c0-1,0.7-2.6,1.3-3.4c0.3-0.4,0.6-0.6,0.9-0.6c0.4,0,0.4,0.4,0.4,0.7
		c0,0.9-0.6,2.5-1.1,3.2C95.5,33.9,95.2,34.1,94.9,34.1z M93.2,32.9c0,1,0.5,1.7,1.6,1.7c0.6,0,1.3-0.2,2.1-0.9
		c0.9-0.9,1.3-2.1,1.3-2.9c0-1-0.5-1.8-1.6-1.8c-0.6,0-1.3,0.2-2,0.9C93.8,30.6,93.2,31.9,93.2,32.9z"/>
	<path fill="#E9E9EA" d="M101.7,33.3c-0.1,0.3-0.1,0.5,0.1,0.5c0.3,0,1-0.7,1.5-1.3c0.2,0,0.3,0.1,0.2,0.2c-0.4,0.7-1.2,1.8-2.5,1.8
		c-0.5,0-0.7-0.3-0.7-0.5c0-0.2,0.1-0.5,0.2-1l2.2-6.4c0.2-0.7,0.2-0.8-0.1-1l-0.3-0.2c-0.1-0.1-0.1-0.2,0-0.3
		c0.4-0.1,1.5-0.4,2.1-0.4c0,0,0.1,0.1,0.1,0.1c-0.2,0.5-0.3,1-0.7,2L101.7,33.3z"/>
	<path fill="#E9E9EA" d="M106.7,30.3c0.1-0.2,0.1-0.3,0-0.3c-0.3,0-0.9,0.5-1.2,0.9c-0.1,0-0.2-0.1-0.2-0.3c0.4-0.6,1.6-1.6,2.5-1.6
		c0.3,0,0.5,0.2,0.5,0.5c0,0.1,0,0.2-0.1,0.4l-1.4,3.4c-0.1,0.2,0,0.4,0.1,0.4c0.2,0,0.5-0.3,1-0.7c1.1-1.1,2-2.8,2.5-3.9
		c0.1,0,0.2-0.1,0.4-0.1c0.3,0,0.6,0.1,0.7,0.3c-0.3,0.9-1,2.6-1.6,4.1c-0.1,0.2-0.1,0.4,0.1,0.4c0.2,0,0.9-0.6,1.3-1
		c0.1,0,0.2,0.1,0.2,0.2c-0.4,0.7-1.6,1.7-2.6,1.7c-0.3,0-0.5-0.3-0.4-0.6l0.8-2.1h0c-0.8,1.1-2.4,2.7-3.3,2.7
		c-0.4,0-0.6-0.3-0.6-0.6c0-0.2,0.1-0.4,0.2-0.7L106.7,30.3z"/>
	<path fill="#E9E9EA" d="M116.1,29.9l-1.2,3.4c-0.1,0.2-0.1,0.3,0.1,0.3c0.2,0,1-0.6,1.5-1.1c0.2,0,0.2,0.1,0.2,0.3
		c-0.6,0.9-1.9,1.8-2.7,1.8c-0.3,0-0.5-0.2-0.5-0.5c0-0.2,0-0.4,0.2-0.7l1.2-3.6h-1c-0.1-0.1,0-0.3,0.1-0.4l1.1-0.2l0.9-1.3
		c0.1-0.1,0.2-0.1,0.3-0.1c0.2,0,0.4,0.1,0.4,0.2l-0.4,1.2h1.3c0.2,0.2,0.1,0.5-0.1,0.6H116.1z"/>
	<path fill="#E9E9EA" d="M120.3,33.4c-0.1,0.1-0.1,0.3,0,0.3c0.2,0,0.9-0.5,1.3-0.9c0.1,0,0.3,0.1,0.2,0.3c-0.4,0.6-1.6,1.6-2.7,1.6
		c-0.2,0-0.4-0.3-0.4-0.4c0-0.1,0-0.3,0.1-0.5l1.5-3.5c0.1-0.1,0.1-0.2,0-0.2c-0.2,0-0.7,0.3-1.1,0.7c-0.1,0-0.2-0.2-0.2-0.3
		c0.7-0.8,1.8-1.4,2.4-1.4c0.2,0,0.4,0.2,0.4,0.4c0,0.1,0,0.3-0.1,0.6L120.3,33.4z M121.1,26.8c0-0.5,0.3-1,0.9-1
		c0.4,0,0.6,0.2,0.6,0.7c0,0.5-0.4,1-0.9,1C121.3,27.4,121.1,27.1,121.1,26.8z"/>
	<path fill="#E9E9EA" d="M125.7,34.1c-0.3,0-0.5-0.3-0.5-0.7c0-1,0.7-2.6,1.3-3.4c0.3-0.4,0.6-0.6,0.9-0.6c0.4,0,0.4,0.4,0.4,0.7
		c0,0.9-0.6,2.5-1.1,3.2C126.3,33.9,126,34.1,125.7,34.1z M124,32.9c0,1,0.5,1.7,1.6,1.7c0.6,0,1.3-0.2,2.1-0.9
		c0.9-0.9,1.3-2.1,1.3-2.9c0-1-0.5-1.8-1.6-1.8c-0.6,0-1.3,0.2-2,0.9C124.5,30.6,124,31.9,124,32.9z"/>
	<path fill="#E9E9EA" d="M137.1,29.7c0,0.3-0.1,0.7-0.2,1.1c-0.2,0.7-0.9,2.1-1.1,2.6c-0.1,0.2-0.1,0.3,0,0.3c0.2,0,0.9-0.5,1.2-0.9
		c0.2,0,0.2,0.1,0.2,0.2c-0.5,0.7-1.5,1.6-2.6,1.6c-0.2,0-0.5-0.2-0.5-0.4c0-0.2,0.1-0.3,0.2-0.8c0.3-0.8,0.8-1.9,1.1-2.7
		c0.1-0.3,0.2-0.6,0.2-0.8c0-0.1,0-0.2-0.2-0.2c-0.2,0-0.8,0.4-1.4,1.2c-0.7,0.9-1.4,2.2-2,3.5c-0.1,0.2-0.2,0.2-0.5,0.2
		c-0.2,0-0.7-0.1-0.6-0.5c0.1-0.2,1.3-3.5,1.4-3.8c0.1-0.2,0.1-0.4-0.1-0.4c-0.3,0-0.8,0.3-1.1,0.7c-0.1,0-0.2-0.1-0.2-0.2
		c0.4-0.7,1.4-1.4,2.3-1.4c0.5,0,0.5,0.4,0.4,0.7l-0.8,2.1h0.1c0.8-1.2,2.1-2.8,3.2-2.8C136.9,29,137.1,29.4,137.1,29.7z"/>
	<path fill="#E9E9EA" d="M138.8,33.7c0-0.3,0.2-0.6,0.5-0.6c0.1,0,0.2,0.1,0.3,0.2c0.3,0.4,0.6,0.6,1,0.6c0.3,0,0.5-0.2,0.5-0.5
		c0-0.4-0.4-0.9-0.7-1.2c-0.4-0.5-0.6-0.9-0.6-1.3c0-0.6,0.3-1,0.8-1.4c0.4-0.3,0.9-0.5,1.2-0.5c0.6,0,1.1,0.5,1.1,0.9
		c0,0.4-0.3,0.6-0.4,0.6c-0.1,0-0.2-0.1-0.3-0.2c-0.4-0.4-0.6-0.6-0.9-0.6c-0.3,0-0.5,0.2-0.5,0.4c0,0.4,0.4,0.8,0.7,1.1
		c0.4,0.5,0.6,0.9,0.6,1.4c0,0.5-0.2,1-0.7,1.4c-0.4,0.3-0.9,0.5-1.5,0.5C139.3,34.6,138.8,34.2,138.8,33.7z"/>
</g>
</svg>
