<?xml version="1.0" encoding="utf-8"?>
<!-- Generator: Adobe Illustrator 18.1.0, SVG Export Plug-In . SVG Version: 6.00 Build 0)  -->
<svg version="1.1" id="Layer_1" xmlns="http://www.w3.org/2000/svg" xmlns:xlink="http://www.w3.org/1999/xlink" x="0px" y="0px"
	 viewBox="0 0 1122.9 168.8" enable-background="new 0 0 1122.9 168.8" xml:space="preserve">
<g>
	<path fill="#FFFFFF" d="M89.8,147.4H77.1c-1.4,0-2.6-0.4-3.5-1.1c-0.9-0.7-1.6-1.6-2-2.6l-6.6-18H28.6l-6.6,18
		c-0.3,0.9-1,1.8-1.9,2.6c-1,0.8-2.1,1.2-3.5,1.2H3.9l34.6-88h16.7L89.8,147.4z M32.8,114.2h28.1L50.1,84.9c-0.5-1.3-1-2.8-1.6-4.6
		c-0.6-1.8-1.2-3.7-1.7-5.8c-0.6,2.1-1.1,4-1.7,5.8c-0.5,1.8-1.1,3.3-1.6,4.7L32.8,114.2z"/>
	<path fill="#FFFFFF" d="M97.2,147.4v-88h30.4c5.8,0,10.7,0.5,14.8,1.6c4.1,1.1,7.4,2.7,10,4.7c2.6,2,4.5,4.5,5.8,7.4
		c1.2,2.9,1.8,6.1,1.8,9.7c0,2.1-0.3,4-0.9,5.9c-0.6,1.9-1.6,3.7-2.8,5.3c-1.3,1.6-2.9,3.1-4.9,4.5c-2,1.3-4.3,2.5-7,3.4
		c12.1,2.7,18.1,9.2,18.1,19.6c0,3.7-0.7,7.2-2.1,10.3c-1.4,3.2-3.5,5.9-6.2,8.2c-2.7,2.3-6.1,4.1-10,5.4c-4,1.3-8.5,1.9-13.6,1.9
		H97.2z M113.6,97.5h13.1c5.6,0,9.8-1,12.7-3c2.9-2,4.3-5.3,4.3-9.7c0-4.6-1.3-7.9-3.9-9.8c-2.6-1.9-6.7-2.9-12.2-2.9h-14V97.5z
		 M113.6,108.8v25.8h16.6c3,0,5.6-0.4,7.6-1.1c2-0.7,3.7-1.7,4.9-2.9c1.2-1.2,2.1-2.6,2.7-4.3c0.5-1.6,0.8-3.3,0.8-5.2
		c0-1.9-0.3-3.6-0.9-5.1c-0.6-1.5-1.6-2.8-2.9-3.9c-1.3-1.1-3-1.9-5-2.5c-2-0.6-4.5-0.9-7.4-0.9H113.6z"/>
	<path fill="#FFFFFF" d="M259.4,103.4c0,6.5-1.1,12.4-3.2,17.9c-2.2,5.5-5.2,10.3-9.1,14.3c-3.9,4-8.6,7.2-14.1,9.4
		c-5.5,2.3-11.5,3.4-18.2,3.4c-6.7,0-12.7-1.1-18.2-3.4c-5.5-2.3-10.2-5.4-14.1-9.4c-3.9-4-6.9-8.8-9.1-14.3
		c-2.2-5.5-3.2-11.5-3.2-17.9s1.1-12.4,3.2-17.9c2.1-5.5,5.2-10.3,9.1-14.3c3.9-4,8.6-7.2,14.1-9.4c5.5-2.3,11.6-3.4,18.2-3.4
		c6.7,0,12.7,1.1,18.2,3.4c5.5,2.3,10.2,5.4,14.1,9.4c3.9,4,6.9,8.7,9.1,14.2C258.3,91,259.4,97,259.4,103.4z M242.6,103.4
		c0-4.8-0.6-9.2-1.9-13c-1.3-3.8-3.1-7.1-5.5-9.8c-2.4-2.7-5.3-4.7-8.7-6.1c-3.4-1.4-7.3-2.1-11.6-2.1c-4.3,0-8.2,0.7-11.6,2.1
		c-3.4,1.4-6.4,3.5-8.8,6.1c-2.4,2.7-4.3,5.9-5.6,9.8c-1.3,3.8-1.9,8.2-1.9,13c0,4.8,0.6,9.2,1.9,13c1.3,3.8,3.2,7.1,5.6,9.7
		c2.4,2.7,5.3,4.7,8.8,6.1c3.4,1.4,7.3,2.1,11.6,2.1c4.3,0,8.2-0.7,11.6-2.1c3.4-1.4,6.3-3.5,8.7-6.1c2.4-2.7,4.2-5.9,5.5-9.7
		C241.9,112.6,242.6,108.3,242.6,103.4z"/>
	<path fill="#FFFFFF" d="M306.1,134.2c3.2,0,6-0.5,8.5-1.6c2.5-1.1,4.6-2.5,6.3-4.4c1.7-1.9,3-4.2,4-6.9c0.9-2.7,1.4-5.8,1.4-9.1
		V59.4h16.4v52.7c0,5.2-0.8,10.1-2.5,14.5c-1.7,4.4-4.1,8.3-7.3,11.5c-3.2,3.2-7,5.7-11.5,7.5c-4.5,1.8-9.6,2.7-15.2,2.7
		c-5.6,0-10.7-0.9-15.2-2.7c-4.5-1.8-8.3-4.3-11.5-7.5c-3.1-3.2-5.6-7.1-7.2-11.5c-1.7-4.4-2.5-9.3-2.5-14.5V59.4H286v52.6
		c0,3.4,0.5,6.4,1.4,9.1c0.9,2.7,2.2,5,3.9,7c1.7,1.9,3.8,3.4,6.3,4.5C300.1,133.7,302.9,134.2,306.1,134.2z"/>
	<path fill="#FFFFFF" d="M419.7,59.4v13.4h-26.5v74.5h-16.4V72.9h-26.6V59.4H419.7z"/>
</g>
<g>
	<path fill="#FFFFFF" d="M503.6,113.3c0.3,0.1,0.6,0.1,0.9,0.1c0.3,0,0.6,0,1,0c2.1,0,4-0.2,5.7-0.6c1.7-0.4,3.3-1.1,4.7-2
		c1.5-0.9,2.8-2.1,4.2-3.6c1.3-1.5,2.6-3.3,3.9-5.4l4,3.2c-3.6,5.1-7.2,8.7-11,10.8c-3.8,2-7.8,3.1-12,3.1c-1.6,0-2.9-0.2-4.1-0.5
		c-3.2,5.5-6.6,10.1-10.3,13.9c-3.6,3.8-7.4,6.9-11.2,9.4c-3.8,2.4-7.5,4.2-11.3,5.3c-3.7,1.1-7.2,1.6-10.4,1.6
		c-3.3,0-6.3-0.6-9.1-1.8c-2.8-1.2-5.2-2.9-7.2-5.1c-2-2.2-3.6-4.8-4.7-7.8c-1.1-3-1.7-6.4-1.7-10.2c0-3.8,0.6-7.6,1.8-11.6
		c1.2-3.9,2.8-7.8,4.9-11.7c2-3.9,4.4-7.6,7.2-11.2c2.8-3.6,5.7-6.9,8.9-10c3.2-3.1,6.5-5.9,9.9-8.4c3.4-2.5,6.8-4.5,10.3-6.1
		l3.6,4.8c-3.9,2.9-7.9,6.5-12,10.9c-4.1,4.4-7.7,9.2-11,14.4c-3.3,5.2-6,10.7-8.1,16.3c-2.1,5.6-3.2,11.1-3.2,16.4
		c0,4.8,1,8.5,3.1,11.1c2.1,2.6,5.2,3.9,9.5,3.9c3.3,0,6.5-0.7,9.7-2c3.2-1.4,6.3-3.2,9.4-5.6c3-2.3,6-5.1,8.8-8.3
		c2.8-3.2,5.5-6.6,8-10.3c-2.2-1.3-4.1-3-5.7-5.2c-1.6-2.2-3-4.6-4.1-7.4c-1.1-2.8-2-5.7-2.5-8.9c-0.6-3.2-0.8-6.4-0.8-9.8
		c0-3.3,0.4-6.5,1.2-9.4c0.8-3,2-5.5,3.4-7.8c1.5-2.2,3.1-4,5.1-5.3c1.9-1.3,4.1-1.9,6.4-1.9c2.1,0,3.9,0.6,5.6,1.6
		c1.6,1.1,3,2.6,4.1,4.5c1.1,1.9,2,4.2,2.6,6.9c0.6,2.7,0.9,5.5,0.9,8.5c0,2.3-0.2,4.8-0.6,7.5c-0.4,2.7-0.9,5.5-1.6,8.2
		c-0.7,2.8-1.6,5.5-2.6,8.2C506.1,108.8,504.9,111.2,503.6,113.3z M488.4,85c0,2.2,0.2,4.6,0.6,7.2c0.4,2.6,1,5.1,1.8,7.5
		c0.8,2.4,1.9,4.7,3.1,6.8c1.3,2.1,2.8,3.7,4.7,4.9c1.3-2.6,2.5-5.4,3.4-8.1c0.9-2.8,1.7-5.4,2.3-8c0.6-2.6,1.1-5,1.3-7.2
		c0.3-2.2,0.4-4.2,0.4-5.8c0-2.3-0.2-4.4-0.6-6.2c-0.4-1.9-0.9-3.5-1.5-4.9c-0.6-1.4-1.4-2.5-2.3-3.3c-0.9-0.8-2-1.2-3.1-1.2
		c-1.5,0-2.9,0.5-4.1,1.5c-1.3,1-2.3,2.4-3.2,4.1c-0.9,1.7-1.6,3.7-2.1,5.9C488.7,80.3,488.4,82.6,488.4,85z"/>
	<path fill="#FFFFFF" d="M573.7,119.4c-3.4,4.1-6.8,7.9-10.2,11.3c-3.3,3.4-6.7,6.4-10,8.9c-3.3,2.5-6.6,4.4-9.9,5.8
		c-3.3,1.4-6.6,2.1-9.9,2.1c-2.8,0-5.4-0.5-7.6-1.5c-2.3-1-4.2-2.5-5.9-4.3c-1.7-1.9-3-4.1-3.8-6.8c-0.9-2.7-1.3-5.7-1.3-9
		c0-5.2,1.1-10.6,3.4-16.1c2.3-5.5,5.1-10.9,8.6-16.1c3.5-5.2,7.3-10.2,11.5-14.9c4.2-4.7,8.2-8.9,12-12.5l4.8,3.4
		c-2.7,4-5.7,8.6-9,13.6c-3.3,5.1-6.4,10.3-9.4,15.7c-2.9,5.4-5.4,10.8-7.4,16.2c-2,5.4-3,10.4-3,15c0,3.1,0.6,5.8,1.7,7.9
		c1.2,2.2,3.4,3.3,6.6,3.3c3.6,0,7.5-1.4,11.8-4.3c4.3-2.9,8.7-6.6,13.2-11.2c4.5-4.6,9-9.8,13.5-15.6c4.5-5.8,8.8-11.6,12.8-17.5
		c4-5.9,7.7-11.5,11-16.9c3.3-5.4,6-10,8.1-13.7l8.1,4.1c-4.3,8.6-8.5,16.7-12.4,24.1c-4,7.5-7.5,14.2-10.6,20.1
		c-3.1,5.9-5.5,11.1-7.4,15.5c-1.8,4.4-2.7,7.9-2.7,10.4c0,1.1,0.2,1.9,0.7,2.6c0.4,0.7,1.2,1,2.1,1c2.8,0.1,5.8-1.1,9.1-3.6
		c3.3-2.5,6.7-5.6,10-9.4c3.4-3.8,6.7-7.9,9.9-12.4c3.2-4.5,6.2-8.7,8.8-12.7l4,3.2c-0.4,0.8-1.4,2.3-2.8,4.7
		c-1.4,2.3-3.2,5-5.2,8.1c-2.1,3-4.5,6.2-7.1,9.5c-2.7,3.3-5.5,6.4-8.5,9.1c-3,2.8-6.1,5-9.3,6.8c-3.2,1.8-6.4,2.7-9.5,2.7
		c-1.9,0-3.7-0.3-5.2-1c-1.5-0.7-2.8-1.6-3.8-2.7c-1-1.1-1.9-2.5-2.5-4c-0.6-1.5-0.9-3.1-0.9-4.8c0-2,0.3-4.1,0.9-6.5
		C571.6,124.6,572.5,122.1,573.7,119.4z"/>
	<path fill="#FFFFFF" d="M688.9,105c-1.1,1.7-2.4,3.9-4,6.8c-1.5,2.8-3.3,5.9-5.3,9.2s-4.2,6.6-6.6,10c-2.4,3.4-5.1,6.5-7.9,9.2
		c-2.9,2.7-6,5-9.3,6.7c-3.3,1.7-6.9,2.6-10.7,2.6c-2.1,0-4.1-0.3-5.9-1c-1.9-0.6-3.5-1.6-4.9-3c-1.4-1.4-2.5-3-3.3-5.1
		c-0.8-2-1.2-4.4-1.2-7.1c0-3.7,0.7-7.6,2.2-11.6c1.5-4,3.1-8,5.1-11.8c1.9-3.8,3.9-7.2,5.8-10.4c1.9-3.1,3.3-5.7,4.2-7.6
		c0.9-1.9,1.3-3.5,1.3-4.9c0-1-0.3-1.9-0.9-2.6c-0.6-0.8-1.4-1.5-2.3-2.2c-0.9-0.7-1.9-1.5-2.9-2.3c-1-0.8-1.8-1.8-2.5-2.9
		c-1.9,3-3.8,6.1-5.7,9.2c-1.7,2.7-3.6,5.6-5.6,8.9s-3.9,6.5-5.8,9.7l-4-3.2l23.9-38l3.2,1.7c-0.2,0.5-0.4,1.2-0.7,2.2
		c-0.3,1-0.5,2-0.5,3.2c0,0.8,0.1,1.6,0.4,2.4c0.3,0.8,0.8,1.5,1.6,2.2c3,2.7,5.3,4.8,7,6.3c1.7,1.5,3,2.7,3.7,3.5
		c0.8,0.9,1.3,1.6,1.5,2.2c0.2,0.6,0.3,1.3,0.3,2.2c0,0.9-0.1,2-0.4,3.3c-0.3,1.3-0.8,2.8-1.5,4.7c-0.7,1.8-1.7,4-2.9,6.4
		c-1.2,2.5-2.8,5.3-4.6,8.6c-1.1,2-2.2,4-3.3,6c-1.1,2-2,4-2.9,6.1c-0.9,2-1.5,4.1-2.1,6.1c-0.5,2-0.8,4-0.8,5.9
		c0,1.4,0.2,2.6,0.6,3.5c0.4,0.9,0.9,1.5,1.6,2c0.7,0.5,1.4,0.8,2.2,0.9c0.8,0.2,1.5,0.2,2.3,0.2c2.5,0,4.9-0.7,7.3-2.2
		c2.4-1.5,4.8-3.4,7.1-5.7c2.3-2.3,4.6-5,6.8-8c2.2-3,4.3-6,6.3-9.1c2-3.1,3.9-6.1,5.6-8.9c1.7-2.8,3.2-5.3,4.6-7.4L688.9,105z"/>
	<path fill="#FFFFFF" d="M737.8,50.5c0.7-1.3,2.1-3.5,4-6.7c1.9-3.2,4.1-6.7,6.7-10.6c2.6-3.9,5.4-7.7,8.4-11.6c3-3.9,6-7.2,8.9-9.9
		l5,3.1c-3.2,5.4-6.5,11.1-9.8,17.1s-6.7,12.2-9.9,18.7h36.4l-2.2,5.9h-37.1c-3.3,6.8-6.5,13.6-9.4,20.3c-2.9,6.7-5.5,13.2-7.8,19.3
		c-2.2,6.1-4,11.9-5.2,17.2c-1.3,5.3-1.9,10-1.9,13.9c0,4.9,1.1,8.5,3.3,10.6c2.2,2.2,5,3.2,8.3,3.2c2.9,0,5.9-0.9,8.9-2.7
		c3-1.8,6-4,9-6.8c2.9-2.7,5.7-5.7,8.4-9c2.6-3.3,5-6.3,7-9.2c2-2.9,3.7-5.4,5.1-7.6c1.3-2.2,2.2-3.5,2.5-4l4.1,3.2
		c-2.6,4.4-5.5,9-8.8,14c-3.3,4.9-6.9,9.5-10.9,13.7c-4,4.2-8.3,7.7-13,10.4c-4.7,2.8-9.7,4.1-15.2,4.1c-3.3,0-6.3-0.6-8.8-1.8
		c-2.5-1.2-4.6-2.9-6.3-5.1c-1.7-2.2-3-4.7-3.8-7.7c-0.9-3-1.3-6.2-1.3-9.7c0-2.3,0.4-5.5,1.1-9.7c0.7-4.2,1.9-9.1,3.6-14.8
		c1.7-5.7,4-12.1,6.9-19.2c2.9-7.1,6.5-14.8,10.9-22.9H716l2.2-5.9H737.8z"/>
	<path fill="#FFFFFF" d="M782.2,118.3c-0.1,0.9-0.3,1.8-0.3,2.7c-0.1,0.9-0.1,1.8-0.1,2.7c0,2.7,0.4,5.3,1.2,7.8
		c0.8,2.5,1.9,4.6,3.5,6.5c1.5,1.9,3.4,3.3,5.7,4.4c2.3,1.1,4.9,1.6,7.8,1.6c9.7,0,19.1-3.4,28.2-10.1c9.1-6.7,18.1-17.4,27.1-32
		l3.8,3.4c-4.9,8.3-9.9,15.3-14.9,21.1c-5.1,5.7-10.1,10.4-15.1,13.9c-5,3.6-9.9,6.1-14.8,7.7c-4.8,1.6-9.4,2.4-13.8,2.4
		c-3.2,0-6.6-0.5-10.2-1.4s-6.9-2.4-9.9-4.5c-3-2.1-5.5-5-7.5-8.5c-2-3.6-3-8-3-13.3c0-5.7,0.9-11.1,2.8-16.4
		c1.9-5.3,4.4-10.2,7.4-14.7c3-4.5,6.5-8.7,10.5-12.4c3.9-3.7,7.9-6.9,12-9.6c4.1-2.6,8-4.7,11.9-6.2c3.9-1.5,7.3-2.2,10.3-2.2
		c1.9,0,3.9,0.3,5.9,0.9c2,0.6,3.8,1.6,5.4,2.8c1.6,1.3,2.9,3,3.9,5.1c1,2.1,1.5,4.7,1.5,7.6c0,4-0.9,7.8-2.7,11.3
		c-1.8,3.5-4.3,6.8-7.3,9.8c-3,3-6.6,5.7-10.6,8.1c-4,2.4-8.2,4.4-12.6,6.1c-4.4,1.7-8.8,3-13.3,4
		C790.5,117.7,786.2,118.2,782.2,118.3z M783.1,113.4c5-0.5,9.7-1.6,14.1-3.2c4.4-1.6,8.4-3.5,12-5.8c3.6-2.3,6.9-4.8,9.8-7.6
		c2.9-2.7,5.3-5.5,7.2-8.3c1.9-2.8,3.4-5.5,4.5-8.1c1-2.6,1.6-4.9,1.6-6.9s-0.5-3.7-1.6-4.9c-1.1-1.2-2.4-1.8-3.8-1.8
		c-3.3,0-7,1.2-11,3.6c-4.1,2.4-8.2,5.7-12.3,9.9c-4.1,4.2-7.9,9.1-11.5,14.8C788.3,100.8,785.3,106.9,783.1,113.4z"/>
	<path fill="#FFFFFF" d="M941.6,68.7c-1,2-2.3,4.5-4.1,7.7c-1.7,3.2-3.6,6.7-5.6,10.5c-2,3.8-4,7.8-6.1,12c-2,4.2-3.9,8.2-5.6,12.2
		c-1.7,4-3,7.7-4.1,11.2c-1.1,3.5-1.6,6.5-1.6,8.9c0,2.4,0.5,4,1.4,4.7c0.9,0.7,2.1,1.1,3.6,1.1c2.2,0,4.4-0.6,6.6-1.9
		c2.3-1.3,4.5-3,6.7-5c2.2-2,4.3-4.4,6.4-6.9c2.1-2.6,4-5.2,5.9-7.8c1.8-2.6,3.5-5.1,5-7.5c1.5-2.4,2.8-4.4,3.8-6.1l4,3.2
		c-1.3,2.4-2.8,5-4.5,7.8c-1.7,2.8-3.6,5.6-5.6,8.5c-2,2.8-4.3,5.6-6.6,8.2c-2.4,2.7-4.9,5-7.5,7c-2.6,2-5.4,3.7-8.3,4.9
		c-2.9,1.2-5.9,1.8-8.9,1.8c-4.5,0-7.7-1.4-9.8-4.1c-2.1-2.7-3.1-6.2-3.1-10.6c0-0.3,0-1,0.1-2c0-1,0.1-1.8,0.3-2.4
		c-3.7,4.8-7.3,8.7-10.7,11.8c-3.4,3.1-6.7,5.6-9.8,7.4c-3.2,1.8-6.2,3.1-9.1,3.8c-2.9,0.7-5.7,1.1-8.4,1.1c-2.8,0-5.5-0.5-8-1.4
		c-2.5-0.9-4.7-2.3-6.6-4.1c-1.9-1.8-3.4-4-4.5-6.7c-1.1-2.6-1.6-5.7-1.6-9.2c0-4.3,0.9-9.3,2.8-14.8c1.9-5.6,5.3-11.6,10.1-18
		c4.1-5.5,8.3-10.2,12.8-14c4.4-3.8,8.8-6.8,13.1-9.1c4.3-2.3,8.3-4,12.2-4.9c3.9-1,7.3-1.5,10.4-1.5c6.8,0,12,1.2,15.5,3.5
		c3.5,2.3,5.6,5.8,6.4,10.6c1.5-1.9,3-3.8,4.7-5.7c1.6-1.9,3.3-3.8,5-5.8L941.6,68.7z M907.3,111.8c1-1.6,2.2-3.6,3.6-6.1
		c1.4-2.5,2.9-5,4.5-7.6c1.6-2.6,3.1-5.1,4.6-7.6c1.5-2.4,2.8-4.5,3.9-6.1c0-0.7-0.1-1.8-0.3-3.3c-0.2-1.5-0.7-3-1.5-4.6
		c-0.8-1.6-2.1-2.9-3.9-4c-1.8-1.1-4.3-1.7-7.5-1.7c-2.3,0-4.9,0.4-7.8,1.1c-2.9,0.7-5.9,1.9-9.1,3.6c-3.2,1.7-6.6,4-10,6.8
		c-3.4,2.8-6.8,6.3-10.3,10.4c-5.1,6.3-9.1,12.6-11.9,18.9c-2.8,6.3-4.2,12-4.2,17.1c0,4.3,1,7.6,2.9,10c1.9,2.3,4.7,3.5,8.3,3.5
		c4.1,0,7.9-0.9,11.5-2.8c3.6-1.9,6.9-4.3,10-7.2c3.1-3,6.1-6.2,8.9-9.8C901.9,118.9,904.7,115.3,907.3,111.8z"/>
	<path fill="#FFFFFF" d="M1044.4,82.4c2.2-2.6,4.4-5,6.7-7.2c2.3-2.2,4.6-4.1,6.9-5.7c2.3-1.6,4.6-2.8,6.9-3.7
		c2.3-0.9,4.4-1.3,6.5-1.3c1.6,0,3.3,0.3,4.9,0.9c1.6,0.6,3,1.4,4.3,2.6c1.3,1.2,2.3,2.7,3,4.5c0.7,1.8,1.1,4,1.1,6.5
		c0,3.6-0.5,7.2-1.5,10.7c-1,3.5-2.2,6.9-3.7,10.3c-1.5,3.3-3.1,6.5-4.7,9.7c-1.7,3.1-3.3,6.1-4.7,8.9c-1.5,2.8-2.7,5.5-3.7,8.1
		c-1,2.5-1.5,4.9-1.5,7c0,1.7,0.4,2.9,1.3,3.6c0.9,0.7,1.8,1.1,2.7,1.1c1.9,0,4.2-1.1,6.9-3.4c2.6-2.3,5.4-5.2,8.3-8.7
		c2.9-3.6,5.8-7.5,8.8-11.8c2.9-4.3,5.7-8.5,8.4-12.5l4,3.2c-1,1.6-2.2,3.7-3.7,6.3c-1.5,2.6-3.3,5.4-5.3,8.4c-2,3-4.2,6-6.6,9.1
		c-2.4,3.1-4.9,5.8-7.5,8.3c-2.6,2.5-5.4,4.5-8.2,6c-2.8,1.6-5.7,2.3-8.5,2.3c-1.6,0-3.1-0.2-4.5-0.7s-2.7-1.2-3.8-2.2s-2-2.4-2.7-4
		c-0.7-1.7-1-3.7-1-6.1c0-3.3,0.6-6.6,1.7-9.8c1.1-3.2,2.5-6.3,4.2-9.4c1.7-3.1,3.5-6.2,5.5-9.3c2-3.1,3.8-6.1,5.5-9.1
		c1.7-3,3.1-6.1,4.2-9.1c1.1-3.1,1.7-6.2,1.7-9.4c0-1.6-0.3-2.9-0.9-3.8c-0.6-0.9-1.7-1.4-3.3-1.4c-2.6,0-5.4,1.1-8.3,3.2
		c-2.9,2.2-5.9,5.1-9,8.7c-3.1,3.6-6.3,7.9-9.6,12.7c-3.3,4.8-6.5,9.9-9.8,15.2c-3.2,5.3-6.4,10.8-9.6,16.2
		c-3.2,5.5-6.2,10.8-9.1,15.8l-9.4-5c3.9-8.2,7.6-15.6,11.1-22.1c3.5-6.5,6.5-12.4,9.1-17.7c2.6-5.3,4.6-10.1,6.1-14.4
		c1.5-4.4,2.2-8.5,2.2-12.3c0-0.8-0.1-1.5-0.2-2.3c-0.1-0.8-0.4-1.5-0.9-2.1c-0.4-0.6-1-1.1-1.7-1.5c-0.7-0.4-1.6-0.6-2.7-0.6
		c-2.5,0-5.1,1.2-7.7,3.6c-2.6,2.4-5.4,5.6-8.3,9.8c-2.9,4.1-6,8.9-9.3,14.4c-3.3,5.5-6.9,11.3-10.7,17.4c-3.8,6.1-8,12.4-12.4,18.9
		s-9.3,12.7-14.6,18.8l-7.7-5.2c2.4-3.6,4.9-7.5,7.5-11.5c2.6-4,5.2-8.2,7.8-12.3c2.6-4.2,5-8.3,7.4-12.4c2.3-4.1,4.4-8,6.2-11.8
		c1.8-3.7,3.2-7.1,4.2-10.2c1-3.1,1.6-5.8,1.6-7.9c0-2.6-0.6-4.4-1.9-5.6c-1.3-1.1-2.9-1.7-4.9-1.7c-2.4,0-4.7,0.9-7,2.6
		c-2.3,1.7-4.6,4.2-7.1,7.4c-2.5,3.2-5.2,7-8,11.4c-2.9,4.4-6.1,9.3-9.8,14.6l-4-3.2c3.9-6.4,7.5-12,10.7-16.8
		c3.2-4.8,6.2-8.9,9-12.1c2.8-3.3,5.6-5.7,8.4-7.4c2.8-1.7,5.8-2.5,9.1-2.5c1,0,2.2,0.2,3.7,0.6c1.5,0.4,3,1.1,4.5,2
		c1.5,1,2.8,2.3,4,4.1c1.2,1.7,1.8,4,2.1,6.7c4.2-5.5,8.5-9.8,13.1-13.1c4.5-3.3,8.8-4.9,12.8-4.9c2.9,0,5.4,0.6,7.4,1.8
		c2,1.2,3.6,2.7,4.9,4.6c1.2,1.9,2.1,4,2.7,6.4c0.6,2.4,0.8,4.8,0.8,7.2c0,0.6,0,1.2-0.1,1.9C1044.5,81.1,1044.4,81.7,1044.4,82.4z"
		/>
</g>
</svg>
