<?xml version="1.0" encoding="utf-8"?>
<!-- Generator: Adobe Illustrator 18.1.0, SVG Export Plug-In . SVG Version: 6.00 Build 0)  -->
<svg version="1.1" id="Layer_1" xmlns="http://www.w3.org/2000/svg" xmlns:xlink="http://www.w3.org/1999/xlink" x="0px" y="0px"
	 viewBox="0 0 153.5 35.8" enable-background="new 0 0 153.5 35.8" xml:space="preserve">
<g>
	
		<text transform="matrix(1.07 0 0 1 24.2783 90.1812)" fill="#FFFFFF" font-family="'Lato-Regular'" font-size="41.8817" letter-spacing="-0.9">REALTIME</text>
	<text transform="matrix(1.01 0 0 1 26.9844 115.4507)" fill="#FFFFFF" font-family="'Lato-Light'" font-size="31.547">music solutions</text>
	<g>
		<path fill="#42AAE0" d="M-2.5,82.6l2.6,20l5.8-20C3.4,82.1,0.5,82.1-2.5,82.6z"/>
		<path fill="#42AAE0" d="M-3.1,113.4l-3.6-29.9c-7.8,2.7-15.2,9.5-16,15.7c-0.8,5.3,3.4,8.1,9.1,9.4c0.6,0.1,0.9,0.5,0.8,0.9
			c-0.1,0.6-1.1,1.2-2,1.3c-9.9-1.2-16.2-7.7-14.8-16.1c1.2-8.2,11.3-17.8,21.6-21.8l-1.8-14.3h-0.5C-26,69.8-43.2,83.1-45.7,98.6
			c-1.2,8,2.6,13.9,9.1,17.2h32.8L-3.1,113.4z"/>
		<path fill="#42AAE0" d="M-54.5,94.3c0-0.6,0.1-1.2,0.1-1.8l-6.7,23.2h16.2C-51.3,110.8-54.9,103.3-54.5,94.3z"/>
		<path fill="#42AAE0" d="M-5.6,58.5l1.8,13c1.8-0.4,3.6-0.8,5.3-1C4.4,70,7,69.9,9.5,70.2l3.4-11.7H-5.6z"/>
		<path fill="#42AAE0" d="M-30.9,58.5h-13.5l-7.3,25C-47.7,74.7-39.7,66.3-30.9,58.5z"/>
	</g>
</g>
<g>
	<path fill="#FFFFFF" d="M35.5,15.4l1.4,11l3.2-11C38.8,15.2,37.2,15.2,35.5,15.4z"/>
	<path fill="#FFFFFF" d="M35.2,32.4l-2-16.5c-4.3,1.5-8.4,5.2-8.8,8.6c-0.4,2.9,1.9,4.5,5,5.2c0.4,0.1,0.5,0.3,0.4,0.5
		c0,0.3-0.6,0.7-1.1,0.7c-5.5-0.7-8.9-4.2-8.1-8.9c0.7-4.5,6.2-9.8,11.9-12l-1-7.9h-0.3c-8.7,6.2-18.1,13.6-19.5,22.1
		c-0.7,4.4,1.4,7.6,5,9.5h18L35.2,32.4z"/>
	<path fill="#FFFFFF" d="M6.9,21.9c0-0.3,0-0.7,0.1-1L3.3,33.7h8.9C8.7,31,6.7,26.9,6.9,21.9z"/>
	<path fill="#FFFFFF" d="M33.8,2.2l1,7.1c1-0.2,2-0.4,2.9-0.6c1.6-0.2,3-0.3,4.3-0.1L44,2.2H33.8z"/>
	<path fill="#FFFFFF" d="M19.9,2.2h-7.4L8.4,16C10.7,11.1,15,6.5,19.9,2.2z"/>
</g>
<line fill="none" stroke="#FFFFFF" stroke-width="1.9147" x1="65.3" y1="22.5" x2="132.9" y2="22.5"/>
<path fill="#FFFFFF" d="M54.6,10.7c-1.3,0-1.4,0-1.1-0.9l1.7-5.6c0.2-0.7,0.3-0.8,1.2-0.8c2,0,2.9,1.3,2.9,2.9
	C59.3,8.7,57,10.7,54.6,10.7z M52.3,18.3c-1.3-0.2-1.3-0.7-0.6-2.9l1-3.1c0.2-0.7,0.3-0.7,1.2-0.7c0.8,0,1,0.2,1.3,1.3
	c0.1,0.7,0.7,3.3,1,4.3c0.3,0.9,0.7,1.4,1.1,1.6c0.4,0.2,1,0.3,1.9,0.3c1.1,0,1.5-0.1,1.8-0.1c0.2-0.2,0.2-0.5,0.1-0.7
	c-1.1-0.1-1.7-0.6-2.1-1.6c-0.4-1-0.8-3-1.3-5.2c-0.1-0.5-0.1-0.7,0.3-0.8c1.8-0.4,4.2-1.8,4.2-4.3c0-2.8-2.1-4.2-6.5-4.2
	c-1.7,0-3.1,0-4.7,0.2c-0.3,0.1-0.4,0.5-0.2,0.7l0.9,0.1c0.9,0.2,0.9,0.5,0.2,2.6l-3,9.5c-0.7,2.5-1,2.8-2.2,2.9l-0.7,0.1
	c-0.3,0.1-0.3,0.6-0.1,0.7c1,0,2.2-0.1,3.3-0.1c1.1,0,2.1,0,3.4,0.1c0.2-0.1,0.3-0.5,0.2-0.7L52.3,18.3z"/>
<path fill="#FFFFFF" d="M70.9,9.7c0.3,0,0.5,0.3,0.5,0.6c0,0.4-0.3,1.3-0.9,1.9c-0.8,0.8-1.6,1.3-2.9,1.7c0.3-0.9,0.9-2.2,1.8-3.2
	C70,10,70.5,9.7,70.9,9.7z M66.8,19.4c1.7,0,3.4-0.8,4.8-2.7c0.1-0.3-0.2-0.5-0.4-0.5c-1.2,1.1-2.1,1.6-3,1.6
	c-0.7,0-1.1-0.5-1.1-1.4c0-0.7,0.1-1.3,0.2-1.6c2.8-0.8,6.2-2,6.2-4.3c0-0.8-0.8-1.7-2-1.7c-1,0-2.1,0.3-3.5,1.4
	c-2.4,1.8-3.6,4.6-3.6,6.5C64.4,18.1,65.1,19.4,66.8,19.4z"/>
<path fill="#FFFFFF" d="M82.4,10.2c0.5,0,0.9,0.3,1.1,0.9c-0.4,1.2-1.5,3.4-2.8,4.8c-1.1,1.1-2.2,2-2.6,2c-0.2,0-0.3-0.2-0.3-0.5
	c0.1-1.7,1.4-4.5,2.8-6.1C81.5,10.4,81.9,10.2,82.4,10.2z M84.2,9.8c-0.2-0.2-0.4-0.4-0.5-0.5c-0.2-0.1-0.4-0.2-0.6-0.2
	c-0.6,0-1.2,0.2-2,0.6c-0.9,0.5-2,1.2-3.2,2.5c-1.9,2.2-3,4.8-3,5.7c0,0.8,0.6,1.5,1.4,1.5c1.5,0,4-1.8,5.8-4.2h0.1l-0.9,2.4
	c-0.2,0.5-0.3,0.8-0.3,1c0,0.3,0.2,0.8,0.8,0.8c1.6,0,3.6-1.4,4.7-2.8c0-0.3-0.2-0.5-0.4-0.5c-1.1,1.1-2.1,1.6-2.5,1.6
	c-0.2,0-0.3-0.1-0.1-0.5c0.9-2.6,2.6-6.8,3.3-8.4c-0.2-0.5-0.9-0.6-1.4-0.6c-0.2,0-0.4,0.1-0.5,0.1L84.2,9.8z"/>
<path fill="#FFFFFF" d="M92,17c-0.2,0.7-0.3,1,0.1,1c0.6,0,1.9-1.4,2.8-2.4c0.3,0,0.5,0.2,0.5,0.5c-0.7,1.4-2.2,3.4-4.8,3.4
	c-1,0-1.3-0.5-1.3-0.9c0-0.4,0.1-0.9,0.5-1.9l4.2-12.2c0.5-1.3,0.4-1.6-0.1-1.8l-0.6-0.3C93,2.2,93,2,93.2,1.8
	c0.7-0.3,2.8-0.7,4-0.8c0.1,0,0.2,0.2,0.2,0.2C97,2.2,96.7,3,96.1,5L92,17z"/>
<path fill="#FFFFFF" d="M103.8,10.4l-2.3,6.5c-0.2,0.4-0.1,0.6,0.1,0.6c0.4,0,1.9-1.1,2.8-2.1c0.3,0.1,0.5,0.2,0.4,0.6
	c-1.1,1.7-3.6,3.5-5.2,3.5c-0.5,0-0.9-0.5-0.9-0.9c0-0.4,0.1-0.7,0.3-1.4l2.3-6.8h-1.9c-0.2-0.2,0-0.7,0.3-0.8l2.1-0.4l1.6-2.5
	c0.2-0.1,0.4-0.1,0.6-0.1c0.4,0,0.7,0.1,0.8,0.3l-0.7,2.4h2.5c0.3,0.3,0.1,1-0.2,1.1H103.8z"/>
<path fill="#FFFFFF" d="M111.7,17.2c-0.1,0.3-0.1,0.5,0.1,0.5c0.4,0,1.8-1,2.5-1.7c0.3,0,0.5,0.3,0.4,0.5c-0.7,1.1-3.1,3-5.1,3
	c-0.4,0-0.8-0.6-0.8-0.8c0-0.3,0-0.6,0.2-1l2.8-6.6c0.1-0.3,0.1-0.4-0.1-0.4c-0.3,0-1.4,0.7-2.2,1.4c-0.3,0-0.4-0.3-0.4-0.5
	c1.4-1.6,3.5-2.7,4.7-2.7c0.4,0,0.8,0.4,0.8,0.7c0,0.2,0,0.6-0.3,1.1L111.7,17.2z M113.1,4.5c0-0.9,0.6-1.8,1.7-1.8
	c0.8,0,1.2,0.4,1.2,1.2c0,1-0.7,1.8-1.7,1.8C113.5,5.8,113.1,5.2,113.1,4.5z"/>
<path fill="#FFFFFF" d="M123.9,10.1l-1.5,3.7h0c1.6-2.5,3.8-5.1,5.8-5.1c1.5,0,1.5,1.4,1.3,2.2c-0.2,0.5-0.7,2-1.1,3h0.1
	c2-3.3,4.1-5.2,5.9-5.2c1.1,0,1.6,0.7,1.6,1.5c0,0.5-0.2,1.3-0.5,1.9c-0.5,1.2-1.7,4-2.1,5c-0.1,0.3-0.1,0.5,0.1,0.5
	c0.5,0,1.6-0.9,2.3-1.7c0.3-0.1,0.5,0.1,0.5,0.5c-0.8,1.4-2.9,3-4.9,3c-0.5,0-0.9-0.5-0.9-0.8c0-0.3,0.2-0.7,0.5-1.5
	c0.7-1.5,1.5-3.6,2.1-5.1c0.2-0.5,0.4-1.1,0.4-1.5c0-0.3-0.1-0.5-0.4-0.5c-0.5,0-1.4,0.7-2.6,2.3c-1.3,1.7-2.5,4.1-3.8,6.6
	c-0.2,0.4-0.4,0.5-0.8,0.5c-0.7,0-1.5-0.2-1.3-0.8c0-0.2,2-5.3,2.6-6.6c0.2-0.4,0.5-1.1,0.5-1.4c0-0.3-0.1-0.5-0.4-0.5
	c-0.6,0-1.5,0.7-2.8,2.3c-1.3,1.6-2.5,4.1-3.6,6.6c-0.2,0.4-0.4,0.5-0.8,0.5c-0.8,0-1.4-0.2-1.3-0.8c0.1-0.3,2.4-6.7,2.7-7.4
	c0.2-0.7,0.2-0.9-0.2-0.9c-0.8,0-1.6,0.8-2.1,1.4c-0.3,0-0.5-0.2-0.5-0.5c0.7-1.4,2.2-2.6,4.4-2.6C124,8.8,124.2,9.5,123.9,10.1z"/>
<path fill="#FFFFFF" d="M145,9.7c0.3,0,0.5,0.3,0.5,0.6c0,0.4-0.3,1.3-0.9,1.9c-0.8,0.8-1.6,1.3-2.9,1.7c0.3-0.9,0.9-2.2,1.8-3.2
	C144.1,10,144.7,9.7,145,9.7z M141,19.4c1.7,0,3.4-0.8,4.8-2.7c0.1-0.3-0.2-0.5-0.4-0.5c-1.2,1.1-2.1,1.6-3,1.6
	c-0.7,0-1.1-0.5-1.1-1.4c0-0.7,0.1-1.3,0.2-1.6c2.8-0.8,6.2-2,6.2-4.3c0-0.8-0.8-1.7-2-1.7c-1,0-2.1,0.3-3.5,1.4
	c-2.4,1.8-3.6,4.6-3.6,6.5C138.6,18.1,139.3,19.4,141,19.4z"/>
<g>
	<path fill="#FFFFFF" d="M42.7,33.2c0.3,0,0.6-0.1,0.8-0.3c0.2-0.3,0.6-1.1,1.3-2.9l1.1-3c0.4-0.9,0.4-1.3,0.3-1.5
		c-0.1-0.1-0.2-0.2-0.4-0.2l-0.5-0.1c-0.1-0.1-0.1-0.3,0.1-0.4c0.7,0,1.2,0,1.8,0c0.4,0,0.7,0,1.2,0c-0.2,0.6-0.1,1.7,0,2.6l0.2,1.4
		c0.1,0.9,0.2,1.7,0.3,2.1c0.3-0.4,0.8-1,1.3-1.7l1.8-2.5c0.9-1.2,1.2-1.7,1.2-2c0.2,0,0.6,0,1,0c0.6,0,1,0,1.7,0
		c0.1,0.1,0.1,0.3,0,0.4l-0.3,0.1c-0.4,0.1-0.6,0.1-0.7,0.3c-0.2,0.2-0.3,0.6-0.6,1.5l-1.2,4.4c-0.2,0.9-0.3,1.3-0.3,1.5
		c0.1,0.1,0.2,0.2,0.5,0.3l0.4,0.1c0.1,0.1,0.1,0.3,0,0.4c-0.7,0-1.3,0-2,0c-0.6,0-1.1,0-1.7,0c-0.1-0.1-0.1-0.3,0-0.4l0.4-0.1
		c0.2,0,0.5-0.1,0.6-0.2c0.2-0.2,0.4-0.7,0.6-1.5l1.1-3.7c0.2-0.7,0.3-1.2,0.5-1.6l0,0c-0.2,0.3-0.6,0.7-1.1,1.5l-2,2.7
		c-0.7,1-1.4,1.9-2,3c-0.1,0.1-0.3,0.1-0.4-0.1c0-0.5,0-1.2-0.2-2.7c0-0.4-0.2-1.8-0.2-2.2c-0.1-0.9-0.2-1.7-0.2-2.2h0
		c-0.2,0.5-0.5,1.2-0.7,1.9l-0.8,2.3c-0.6,1.7-0.8,2.1-0.8,2.4c0,0.2,0.1,0.3,0.4,0.3l0.6,0.1c0.1,0.1,0.1,0.3-0.1,0.4
		c-0.5,0-1.1,0-1.6,0c-0.6,0-1,0-1.5,0c-0.1-0.1-0.1-0.3,0-0.4L42.7,33.2z"/>
	<path fill="#FFFFFF" d="M57.4,29.5c0.1-0.2,0.1-0.3,0-0.3c-0.3,0-0.9,0.5-1.2,0.9c-0.1,0-0.2-0.1-0.2-0.3c0.4-0.6,1.6-1.6,2.5-1.6
		c0.3,0,0.5,0.2,0.5,0.5c0,0.1,0,0.2-0.1,0.4l-1.4,3.4c-0.1,0.2,0,0.4,0.1,0.4c0.2,0,0.5-0.3,1-0.7c1.1-1.1,2-2.8,2.5-3.9
		c0.1,0,0.2-0.1,0.4-0.1c0.3,0,0.6,0.1,0.7,0.3c-0.3,0.9-1,2.6-1.6,4.1c-0.1,0.2-0.1,0.4,0.1,0.4c0.2,0,0.9-0.6,1.3-1
		c0.1,0,0.2,0.1,0.2,0.2c-0.4,0.7-1.6,1.7-2.6,1.7c-0.3,0-0.5-0.3-0.4-0.6l0.8-2.1h0c-0.8,1.1-2.4,2.7-3.3,2.7
		c-0.4,0-0.6-0.3-0.6-0.6c0-0.2,0.1-0.4,0.2-0.7L57.4,29.5z"/>
	<path fill="#FFFFFF" d="M63.5,33c0-0.3,0.2-0.6,0.5-0.6c0.1,0,0.2,0.1,0.3,0.2c0.3,0.4,0.6,0.6,1,0.6c0.3,0,0.5-0.2,0.5-0.5
		c0-0.4-0.4-0.9-0.7-1.2c-0.4-0.5-0.6-0.9-0.6-1.3c0-0.6,0.3-1,0.8-1.4c0.4-0.3,0.9-0.5,1.2-0.5c0.6,0,1.1,0.5,1.1,0.9
		c0,0.4-0.3,0.6-0.4,0.6c-0.1,0-0.2-0.1-0.3-0.2C66.6,29.1,66.4,29,66,29c-0.3,0-0.5,0.2-0.5,0.4c0,0.4,0.4,0.8,0.7,1.1
		c0.4,0.5,0.6,0.9,0.6,1.4c0,0.5-0.2,1-0.7,1.4c-0.4,0.3-0.9,0.5-1.5,0.5C64,33.8,63.5,33.4,63.5,33z"/>
	<path fill="#FFFFFF" d="M70.9,32.6c-0.1,0.1-0.1,0.3,0,0.3c0.2,0,0.9-0.5,1.3-0.9c0.1,0,0.3,0.1,0.2,0.3c-0.4,0.6-1.6,1.6-2.7,1.6
		c-0.2,0-0.4-0.3-0.4-0.4c0-0.1,0-0.3,0.1-0.5l1.5-3.5c0.1-0.1,0.1-0.2,0-0.2c-0.2,0-0.7,0.3-1.1,0.7c-0.1,0-0.2-0.2-0.2-0.3
		c0.7-0.8,1.8-1.4,2.4-1.4c0.2,0,0.4,0.2,0.4,0.4c0,0.1,0,0.3-0.1,0.6L70.9,32.6z M71.6,26c0-0.5,0.3-1,0.9-1c0.4,0,0.6,0.2,0.6,0.7
		c0,0.5-0.4,1-0.9,1C71.8,26.6,71.6,26.3,71.6,26z"/>
	<path fill="#FFFFFF" d="M75.6,33.8c1,0,2-0.7,2.4-1.4c0-0.2-0.1-0.3-0.2-0.3c-0.5,0.6-1,0.8-1.4,0.8c-0.3,0-0.5-0.2-0.5-0.8
		c0-1,0.4-2,0.8-2.6c0.4-0.6,0.7-0.9,1-0.9c0.3,0,0.3,0.4,0.3,0.7c0,0.2,0.2,0.4,0.4,0.4c0.3,0,0.8-0.2,0.8-0.7
		c0-0.5-0.5-0.9-1.1-0.9c-0.7,0-1.4,0.3-2.1,1c-1,0.9-1.5,2.3-1.5,3.1C74.4,33.3,74.9,33.8,75.6,33.8z"/>
	<path fill="#FFFFFF" d="M85.4,32.8c-0.1-0.7,0-1.3,0.1-1.8c0.1-0.1,0.3-0.1,0.4,0c0.1,0.5,0.2,1,0.5,1.4c0.3,0.5,0.9,0.9,1.6,0.9
		c0.8,0,1.8-0.6,1.8-1.7c0-0.9-0.7-1.5-1.4-2.1c-0.6-0.4-1.3-1.2-1.3-2.2c0-1.6,1.3-2.7,3-2.7c0.9,0,1.8,0.3,2.2,0.7
		c-0.2,0.4-0.4,1-0.5,1.7c-0.1,0.1-0.3,0.1-0.4-0.1c0.1-0.9-0.2-1.7-1.5-1.7c-1,0-1.6,0.7-1.6,1.5c0,0.9,0.9,1.5,1.3,1.8
		c0.9,0.6,1.5,1.4,1.5,2.6c0,1.6-1.2,2.8-3.3,2.8C86.7,33.9,85.7,33.4,85.4,32.8z"/>
	<path fill="#FFFFFF" d="M94.9,33.4c-0.3,0-0.5-0.3-0.5-0.7c0-1,0.7-2.6,1.3-3.4c0.3-0.4,0.6-0.6,0.9-0.6c0.4,0,0.4,0.4,0.4,0.7
		c0,0.9-0.6,2.5-1.1,3.2C95.5,33.1,95.2,33.4,94.9,33.4z M93.2,32.1c0,1,0.5,1.7,1.6,1.7c0.6,0,1.3-0.2,2.1-0.9
		c0.9-0.9,1.3-2.1,1.3-2.9c0-1-0.5-1.8-1.6-1.8c-0.6,0-1.3,0.2-2,0.9C93.8,29.9,93.2,31.1,93.2,32.1z"/>
	<path fill="#FFFFFF" d="M101.7,32.6c-0.1,0.3-0.1,0.5,0.1,0.5c0.3,0,1-0.7,1.5-1.3c0.2,0,0.3,0.1,0.2,0.2c-0.4,0.7-1.2,1.8-2.5,1.8
		c-0.5,0-0.7-0.3-0.7-0.5c0-0.2,0.1-0.5,0.2-1l2.2-6.4c0.2-0.7,0.2-0.8-0.1-1l-0.3-0.2c-0.1-0.1-0.1-0.2,0-0.3
		c0.4-0.1,1.5-0.4,2.1-0.4c0,0,0.1,0.1,0.1,0.1c-0.2,0.5-0.3,1-0.7,2L101.7,32.6z"/>
	<path fill="#FFFFFF" d="M106.7,29.5c0.1-0.2,0.1-0.3,0-0.3c-0.3,0-0.9,0.5-1.2,0.9c-0.1,0-0.2-0.1-0.2-0.3c0.4-0.6,1.6-1.6,2.5-1.6
		c0.3,0,0.5,0.2,0.5,0.5c0,0.1,0,0.2-0.1,0.4l-1.4,3.4c-0.1,0.2,0,0.4,0.1,0.4c0.2,0,0.5-0.3,1-0.7c1.1-1.1,2-2.8,2.5-3.9
		c0.1,0,0.2-0.1,0.4-0.1c0.3,0,0.6,0.1,0.7,0.3c-0.3,0.9-1,2.6-1.6,4.1c-0.1,0.2-0.1,0.4,0.1,0.4c0.2,0,0.9-0.6,1.3-1
		c0.1,0,0.2,0.1,0.2,0.2c-0.4,0.7-1.6,1.7-2.6,1.7c-0.3,0-0.5-0.3-0.4-0.6l0.8-2.1h0c-0.8,1.1-2.4,2.7-3.3,2.7
		c-0.4,0-0.6-0.3-0.6-0.6c0-0.2,0.1-0.4,0.2-0.7L106.7,29.5z"/>
	<path fill="#FFFFFF" d="M116.1,29.1l-1.2,3.4c-0.1,0.2-0.1,0.3,0.1,0.3c0.2,0,1-0.6,1.5-1.1c0.2,0,0.2,0.1,0.2,0.3
		c-0.6,0.9-1.9,1.8-2.7,1.8c-0.3,0-0.5-0.2-0.5-0.5c0-0.2,0-0.4,0.2-0.7l1.2-3.6h-1c-0.1-0.1,0-0.3,0.1-0.4l1.1-0.2l0.9-1.3
		c0.1-0.1,0.2-0.1,0.3-0.1c0.2,0,0.4,0.1,0.4,0.2l-0.4,1.2h1.3c0.2,0.2,0.1,0.5-0.1,0.6H116.1z"/>
	<path fill="#FFFFFF" d="M120.3,32.6c-0.1,0.1-0.1,0.3,0,0.3c0.2,0,0.9-0.5,1.3-0.9c0.1,0,0.3,0.1,0.2,0.3c-0.4,0.6-1.6,1.6-2.7,1.6
		c-0.2,0-0.4-0.3-0.4-0.4c0-0.1,0-0.3,0.1-0.5l1.5-3.5c0.1-0.1,0.1-0.2,0-0.2c-0.2,0-0.7,0.3-1.1,0.7c-0.1,0-0.2-0.2-0.2-0.3
		c0.7-0.8,1.8-1.4,2.4-1.4c0.2,0,0.4,0.2,0.4,0.4c0,0.1,0,0.3-0.1,0.6L120.3,32.6z M121.1,26c0-0.5,0.3-1,0.9-1
		c0.4,0,0.6,0.2,0.6,0.7c0,0.5-0.4,1-0.9,1C121.3,26.6,121.1,26.3,121.1,26z"/>
	<path fill="#FFFFFF" d="M125.7,33.4c-0.3,0-0.5-0.3-0.5-0.7c0-1,0.7-2.6,1.3-3.4c0.3-0.4,0.6-0.6,0.9-0.6c0.4,0,0.4,0.4,0.4,0.7
		c0,0.9-0.6,2.5-1.1,3.2C126.3,33.1,126,33.4,125.7,33.4z M124,32.1c0,1,0.5,1.7,1.6,1.7c0.6,0,1.3-0.2,2.1-0.9
		c0.9-0.9,1.3-2.1,1.3-2.9c0-1-0.5-1.8-1.6-1.8c-0.6,0-1.3,0.2-2,0.9C124.5,29.9,124,31.1,124,32.1z"/>
	<path fill="#FFFFFF" d="M137.1,29c0,0.3-0.1,0.7-0.2,1.1c-0.2,0.7-0.9,2.1-1.1,2.6c-0.1,0.2-0.1,0.3,0,0.3c0.2,0,0.9-0.5,1.2-0.9
		c0.2,0,0.2,0.1,0.2,0.2c-0.5,0.7-1.5,1.6-2.6,1.6c-0.2,0-0.5-0.2-0.5-0.4c0-0.2,0.1-0.3,0.2-0.8c0.3-0.8,0.8-1.9,1.1-2.7
		c0.1-0.3,0.2-0.6,0.2-0.8c0-0.1,0-0.2-0.2-0.2c-0.2,0-0.8,0.4-1.4,1.2c-0.7,0.9-1.4,2.2-2,3.5c-0.1,0.2-0.2,0.2-0.5,0.2
		c-0.2,0-0.7-0.1-0.6-0.5c0.1-0.2,1.3-3.5,1.4-3.8c0.1-0.2,0.1-0.4-0.1-0.4c-0.3,0-0.8,0.3-1.1,0.7c-0.1,0-0.2-0.1-0.2-0.2
		c0.4-0.7,1.4-1.4,2.3-1.4c0.5,0,0.5,0.4,0.4,0.7l-0.8,2.1h0.1c0.8-1.2,2.1-2.8,3.2-2.8C136.9,28.2,137.1,28.6,137.1,29z"/>
	<path fill="#FFFFFF" d="M138.8,33c0-0.3,0.2-0.6,0.5-0.6c0.1,0,0.2,0.1,0.3,0.2c0.3,0.4,0.6,0.6,1,0.6c0.3,0,0.5-0.2,0.5-0.5
		c0-0.4-0.4-0.9-0.7-1.2c-0.4-0.5-0.6-0.9-0.6-1.3c0-0.6,0.3-1,0.8-1.4c0.4-0.3,0.9-0.5,1.2-0.5c0.6,0,1.1,0.5,1.1,0.9
		c0,0.4-0.3,0.6-0.4,0.6c-0.1,0-0.2-0.1-0.3-0.2c-0.4-0.4-0.6-0.6-0.9-0.6c-0.3,0-0.5,0.2-0.5,0.4c0,0.4,0.4,0.8,0.7,1.1
		c0.4,0.5,0.6,0.9,0.6,1.4c0,0.5-0.2,1-0.7,1.4c-0.4,0.3-0.9,0.5-1.5,0.5C139.3,33.8,138.8,33.4,138.8,33z"/>
</g>
</svg>
