<?xml version="1.0" encoding="utf-8"?>
<!-- Generator: Adobe Illustrator 18.1.0, SVG Export Plug-In . SVG Version: 6.00 Build 0)  -->
<svg version="1.1" id="Layer_1" xmlns="http://www.w3.org/2000/svg" xmlns:xlink="http://www.w3.org/1999/xlink" x="0px" y="0px"
	 viewBox="0 0 79.3 62.5" enable-background="new 0 0 79.3 62.5" xml:space="preserve">
<g>
	<path fill="#41A9DF" d="M61.3,27.2l2.6,20l5.8-20C67.1,26.8,64.3,26.8,61.3,27.2z"/>
	<path fill="#41A9DF" d="M60.7,58.1L57,28.2c-7.8,2.7-15.2,9.5-16,15.7c-0.8,5.3,3.4,8.1,9.1,9.4c0.6,0.1,0.9,0.5,0.8,0.9
		c-0.1,0.6-1.1,1.2-2,1.3c-9.9-1.2-16.2-7.7-14.8-16.1c1.2-8.2,11.3-17.8,21.6-21.8L54,3.1h-0.5C37.8,14.5,20.6,27.8,18.1,43.2
		c-1.2,8,2.6,13.9,9.1,17.2H60L60.7,58.1z"/>
	<path fill="#41A9DF" d="M9.3,39c0-0.6,0.1-1.2,0.1-1.8L2.7,60.4h16.2C12.5,55.4,8.9,48,9.3,39z"/>
	<path fill="#41A9DF" d="M58.2,3.1l1.8,13c1.8-0.4,3.6-0.8,5.3-1c2.8-0.4,5.5-0.5,7.9-0.2l3.4-11.7H58.2z"/>
	<path fill="#41A9DF" d="M32.9,3.1H19.4l-7.3,25C16.1,19.3,24.1,11,32.9,3.1z"/>
</g>
</svg>
